<svg xmlns="http://www.w3.org/2000/svg" width="47" height="47" fill="none" viewBox="0 0 47 47">
  <g clip-path="url(#a)">
    <path stroke="#283D8F" stroke-linecap="round" stroke-linejoin="round" stroke-width="2" d="M23.385 35.078v4.385m2.923-7.307-2.923 2.923-2.923-2.923M19 8.77h8.77m-8.77 0L9.204 5.891a1.462 1.462 0 0 0-1.79 1.15l-3 16.076C4.13 24.622 6.057 25.492 7 24.29L19 8.77Zm8.77 0 9.798-2.879a1.462 1.462 0 0 1 1.79 1.15l3 16.076c.281 1.504-1.644 2.375-2.587 1.173L27.769 8.77Z"/>
    <path fill="#283D8F" d="M16.808 27.771a2.192 2.192 0 1 0 0-4.384 2.192 2.192 0 0 0 0 4.384Zm13.154 0a2.192 2.192 0 1 0 0-4.384 2.192 2.192 0 0 0 0 4.384Z"/>
    <path stroke="#283D8F" stroke-linecap="round" stroke-linejoin="round" stroke-width="2" d="M38 21.996V33.62a5.847 5.847 0 0 1-5.846 5.846H14.616A5.846 5.846 0 0 1 8.77 33.62V21.996"/>
  </g>
  <defs>
    <clipPath id="a">
      <path fill="#fff" d="M0 0h46.77v46.77H0z"/>
    </clipPath>
  </defs>
</svg>
