<svg xmlns="http://www.w3.org/2000/svg" width="142" height="43" fill="none" viewBox="0 0 142 43">
  <path fill="#fff" stroke="#fff" stroke-miterlimit="10" stroke-width=".291" d="M53.347 17.3c.012.157.047.355.11.581.064.227.192.454.378.669.186.215.46.401.814.552.355.151.831.233 1.419.233.738 0 1.33-.14 1.778-.419.442-.279.669-.726.669-1.33 0-.49-.14-.879-.419-1.17a3.612 3.612 0 0 0-1.058-.738 10.7 10.7 0 0 0-1.383-.54 8.224 8.224 0 0 1-1.384-.576 3.477 3.477 0 0 1-1.058-.843c-.279-.337-.424-.778-.424-1.33 0-.42.087-.797.262-1.123.174-.325.407-.598.703-.813a3.38 3.38 0 0 1 1.029-.495c.39-.11.802-.168 1.232-.168.43 0 .808.046 1.186.145.378.099.72.244 1.017.436.303.192.547.425.744.704.198.279.326.587.378.935h-.959c-.075-.552-.325-.959-.75-1.214-.424-.256-.947-.384-1.552-.384-.366 0-.692.046-.97.133-.28.088-.518.204-.71.35a1.457 1.457 0 0 0-.436.51 1.39 1.39 0 0 0-.145.635c0 .4.145.726.436.97.29.244.657.46 1.093.646.436.185.912.366 1.424.534a8.37 8.37 0 0 1 1.424.622c.436.25.802.558 1.093.925.29.372.436.842.436 1.424 0 .418-.087.808-.256 1.15-.169.35-.407.64-.715.884a3.36 3.36 0 0 1-1.116.564 5.003 5.003 0 0 1-1.47.198 5.312 5.312 0 0 1-1.477-.192 3.887 3.887 0 0 1-1.174-.535 2.647 2.647 0 0 1-.791-.837 2.323 2.323 0 0 1-.314-1.093h.953-.017Zm10.294 2.488h-1.279v-9.83h1.28v4.296h5.882V9.958h1.279v9.83h-1.28V14.9h-5.882v4.89Zm12.399-9.83v9.83h-1.278v-9.83h1.279Zm12.528 0v9.999h-.07l-7.795-7.68h-.058v7.511H80V9.79h.07l7.795 7.679h.058v-7.51h.645Zm3.581 0 2.865 5.18h.059l3.005-5.18h.756L95.38 15.94v3.848H94.1v-3.72l-3.4-6.11h1.448Zm15.038 9.83h-1.279v-9.83h3.285c.54 0 1.017.082 1.418.239a2.9 2.9 0 0 1 1.006.64c.267.267.465.58.598.94.134.361.198.74.198 1.129 0 .39-.076.796-.227 1.156a2.72 2.72 0 0 1-.668.954 3.097 3.097 0 0 1-1.105.65 4.517 4.517 0 0 1-1.517.24 6.407 6.407 0 0 1-1.709-.228v4.11Zm0-4.68a2.5 2.5 0 0 0 .663.146c.244.023.511.035.802.035.418 0 .779-.07 1.081-.21.302-.139.547-.325.744-.546.198-.226.337-.476.43-.75a2.69 2.69 0 0 0 .134-.82c0-.267-.046-.563-.145-.848a2.383 2.383 0 0 0-.442-.773 2.251 2.251 0 0 0-.744-.552 2.444 2.444 0 0 0-1.041-.21h-1.476v4.534l-.006-.005Zm7.976 1.785-1.238 2.895h-.646l4.157-9.83h.703l4.581 9.83h-1.361l-1.348-2.895h-4.848Zm2.342-5.365h-.058l-2.023 4.732h4.284l-2.203-4.732Zm8.022 8.26v-9.056h-3.761v-.774h8.806v.774h-3.761v9.056h-1.284Zm8.313 0h-1.278v-9.83h1.278v4.296h5.883V9.958h1.279v9.83h-1.279V14.9h-5.883v4.89ZM59.653 31.094a3.338 3.338 0 0 1-1.058.762c-.261.122-.57.227-.924.308a5.38 5.38 0 0 1-1.203.128c-.71 0-1.32-.11-1.832-.332-.511-.22-.935-.511-1.26-.871a3.406 3.406 0 0 1-.733-1.244 4.482 4.482 0 0 1-.239-1.436c0-.57.1-1.081.297-1.54a3.42 3.42 0 0 1 .831-1.18 3.84 3.84 0 0 1 1.29-.756 5.048 5.048 0 0 1 1.669-.262c.424 0 .796.04 1.128.128.33.081.616.198.866.349.244.145.453.325.616.529.163.203.302.424.407.662h-.78a1.315 1.315 0 0 0-.255-.436 1.686 1.686 0 0 0-.477-.383 2.875 2.875 0 0 0-.662-.273 3.056 3.056 0 0 0-.826-.105c-.442 0-.848.081-1.226.244a2.94 2.94 0 0 0-1.616 1.703 3.645 3.645 0 0 0-.227 1.314c0 .448.07.884.215 1.296.145.413.355.78.64 1.093.279.314.633.57 1.052.756.418.192.907.285 1.453.285.982 0 1.831-.337 2.546-1.012l.314.285-.006-.012Zm1.5 1.07v-7.37h.96v6.795h3.801v.58h-4.76v-.005Zm11.12-7.371v.582h-3.801v2.644h3.267v.483h-3.267v3.087h3.802v.58h-4.761V24.8h4.76v-.006Zm2.064 5.203-.924 2.168h-.482l3.115-7.37h.53l3.435 7.37h-1.023l-1.012-2.168h-3.639Zm1.756-4.023h-.04l-1.518 3.552h3.215l-1.651-3.552h-.006Zm11.934-1.18v7.499h-.052l-5.848-5.76h-.041v5.632h-.483v-7.499h.053l5.848 5.761h.04v-5.633h.483Zm3.929 0v7.371h-.959v-7.37h.96Zm9.394 0v7.499h-.052l-5.848-5.76h-.04v5.632h-.483v-7.499h.052l5.848 5.761h.041v-5.633h.482Zm9.26 7.371h-.895v-.43c-.267.14-.604.267-1.011.384a5.135 5.135 0 0 1-1.401.174c-.704 0-1.308-.11-1.814-.331a3.548 3.548 0 0 1-1.25-.884 3.583 3.583 0 0 1-.726-1.256 4.498 4.498 0 0 1-.239-1.447c0-.581.099-1.104.309-1.564.203-.459.488-.848.854-1.162a3.832 3.832 0 0 1 1.302-.727 5.175 5.175 0 0 1 1.651-.25c.517 0 .971.058 1.354.175.384.116.704.255.965.424.262.168.465.349.617.54.151.192.255.367.319.524h-.755a1.03 1.03 0 0 0-.279-.436 2.026 2.026 0 0 0-.553-.384 3.812 3.812 0 0 0-1.691-.378c-.5 0-.936.082-1.314.244a2.64 2.64 0 0 0-.953.686 2.937 2.937 0 0 0-.587 1.052 4.444 4.444 0 0 0-.198 1.337c0 .483.07.942.203 1.355.14.413.343.767.617 1.064.273.296.622.534 1.034.697.413.169.901.25 1.454.25a3.92 3.92 0 0 0 1.127-.145c.332-.099.657-.25.971-.454v-1.906h-1.18v-.43h2.075v3.284l-.006-.006Z"/>
  <path fill="#fff" d="m34.286 12.737 1.075-.563-.453 1.127.564 1.081-1.128-.453-1.081.564.453-1.134-.564-1.075 1.134.453ZM37 12.028l1.204-.168-.803.912.169 1.204-.913-.803-1.203.169.802-.913-.168-1.203.912.802Z"/>
  <path fill="#fff" d="m34.519 10.435 1.011-.68-.33 1.175.68 1.011-1.175-.326-1.011.675.325-1.169-.674-1.011 1.174.325ZM9.354 26.584l1.082-.564-.454 1.134.564 1.075-1.134-.453-1.075.563.448-1.127-.558-1.081 1.127.453Zm2.715-.704 1.209-.168-.808.913.174 1.203-.912-.802-1.21.168.809-.912-.175-1.21.913.809Z"/>
  <path fill="#fff" d="m9.586 24.282 1.012-.674-.326 1.174.675 1.011-1.169-.331-1.011.68.325-1.174-.68-1.012 1.174.326Z"/>
  <path stroke="#fff" stroke-miterlimit="10" stroke-width="1.163" d="M24.084 11.767 2 26.072l22.194 15.684 21.537-15.224-21.647-14.765Zm-10.017 7.068 21.648 15.288m-.9-15.038L13.179 33.966"/>
  <path fill="#fff" d="M30.954 34.123H17.107v.79h13.847v-.79ZM19.63 31.635h9.127c.854 0 1.546.692 1.546 1.547v.72H18.084v-.72c0-.855.692-1.547 1.546-1.547Zm5.546-11.161h-2.29v10.638h2.29V20.474Zm0-2.284h-2.29v1.517h2.29V18.19Zm0-1.936h-2.29v1.517h2.29v-1.517Zm0-1.93h-2.29v1.518h2.29v-1.518Zm0-1.93h-2.29v1.518h2.29v-1.518Zm1.029-4.737a7.517 7.517 0 0 0-.732 1.854l-2.337-.25a9.723 9.723 0 0 1 .854-2.575l2.215.97Zm1.4-1.988A7.585 7.585 0 0 0 26.38 7.33l-2.215-.97a9.534 9.534 0 0 1 1.633-2.372l1.808 1.674v.006Zm1.599-1.355c-.482.32-.93.686-1.325 1.093l-1.808-1.674c.465-.5.988-.953 1.57-1.36l1.564 1.941ZM30.32.949l.855 2.336c-.285.1-.57.215-.848.355-.28.14-.564.296-.832.465l-1.563-1.942c.407-.279.837-.534 1.296-.761.36-.174.72-.326 1.087-.453h.006Zm-4.936 8.963a7.736 7.736 0 0 0-.22 2.203h-2.25a9.62 9.62 0 0 1 .14-2.453l2.336.25h-.006ZM32.849.379l.39 2.436a7.571 7.571 0 0 0-1.727.395L30.657.873c.721-.25 1.46-.413 2.192-.494Zm2.831.064-.163 2.412a7.743 7.743 0 0 0-1.907-.035L33.22.385a9.71 9.71 0 0 1 2.465.058h-.005Z"/>
</svg>
