<svg xmlns="http://www.w3.org/2000/svg" width="1310" height="394" fill="none" viewBox="0 0 1310 394">
  <path fill="#283D8F" stroke="#283D8F" stroke-miterlimit="10" stroke-width="2.715" d="M489.382 158.525c.109 1.467.435 3.313 1.032 5.431s1.792 4.236 3.53 6.246c1.738 2.009 4.29 3.747 7.603 5.159 3.313 1.412 7.766 2.172 13.251 2.172 6.898 0 12.437-1.303 16.619-3.91 4.127-2.607 6.245-6.788 6.245-12.436 0-4.562-1.303-8.201-3.91-10.916-2.607-2.716-5.92-4.997-9.884-6.898-3.965-1.9-8.309-3.584-12.925-5.05-4.617-1.467-8.961-3.259-12.926-5.377-3.964-2.118-7.277-4.724-9.884-7.874-2.607-3.15-3.964-7.278-3.964-12.437 0-3.91.814-7.44 2.444-10.481 1.629-3.042 3.801-5.594 6.571-7.603 2.77-2.01 5.974-3.53 9.612-4.617a42.147 42.147 0 0 1 11.514-1.575c4.018 0 7.548.435 11.078 1.358 3.531.923 6.735 2.281 9.504 4.073 2.824 1.792 5.105 3.965 6.952 6.571 1.846 2.607 3.041 5.486 3.53 8.744h-8.961c-.706-5.159-3.041-8.961-7.006-11.35-3.964-2.39-8.852-3.585-14.5-3.585-3.421 0-6.463.435-9.069 1.25-2.607.814-4.834 1.9-6.626 3.258-1.792 1.358-3.15 2.933-4.073 4.779-.923 1.846-1.358 3.802-1.358 5.92 0 3.747 1.358 6.788 4.073 9.069 2.716 2.281 6.137 4.29 10.21 6.028a167.917 167.917 0 0 0 13.306 4.997 77.537 77.537 0 0 1 13.305 5.811c4.073 2.335 7.495 5.213 10.21 8.635 2.715 3.475 4.073 7.874 4.073 13.305 0 3.91-.814 7.549-2.389 10.753-1.575 3.259-3.802 5.974-6.68 8.255-2.879 2.281-6.354 4.019-10.427 5.268-4.074 1.249-8.635 1.846-13.74 1.846s-9.613-.597-13.795-1.792c-4.181-1.195-7.874-2.824-10.97-4.996-3.095-2.118-5.539-4.725-7.386-7.821-1.792-3.041-2.769-6.462-2.932-10.21h8.906-.163Zm96.175 23.24h-11.948V89.93h11.948v40.133h54.96V89.93h11.948v91.835h-11.948v-45.673h-54.96v45.673Zm115.84-91.835v91.835h-11.948V89.93h11.948Zm117.044.004v93.41h-.652l-72.827-71.741h-.543v70.166h-6.028v-93.41h.651l72.827 71.741h.544V89.934h6.028Zm33.443-.004 26.774 48.388h.543l28.077-48.388h7.06l-32.259 55.883v35.952h-11.947v-34.758L838.361 89.93h13.523Zm140.495 91.835h-11.947V89.93h30.688c5.05 0 9.5.76 13.25 2.226 3.74 1.467 6.89 3.476 9.39 5.974 2.5 2.498 4.35 5.431 5.6 8.798 1.24 3.367 1.84 6.897 1.84 10.536 0 3.639-.7 7.44-2.12 10.807a25.233 25.233 0 0 1-6.24 8.907c-2.77 2.607-6.19 4.616-10.32 6.082-4.13 1.467-8.85 2.227-14.17 2.227-3.15 0-6.03-.217-8.639-.598-2.607-.38-5.051-.868-7.332-1.52v38.396Zm0-43.718c1.847.706 3.911 1.14 6.191 1.357 2.28.218 4.78.326 7.49.326 3.92 0 7.28-.651 10.11-1.955 2.82-1.303 5.1-3.041 6.95-5.105a20.756 20.756 0 0 0 4.02-7.006c.81-2.552 1.25-5.159 1.25-7.657s-.44-5.268-1.36-7.929a22.354 22.354 0 0 0-4.13-7.223c-1.85-2.118-4.18-3.856-6.95-5.16-2.82-1.303-6.03-1.954-9.72-1.954h-13.796v42.36l-.055-.054Zm74.521 16.672-11.57 27.046h-6.03l38.83-91.835h6.58l42.79 91.835h-12.71l-12.6-27.046h-45.29Zm21.89-50.126h-.55l-18.9 44.207h40.03l-20.58-44.207Zm74.94 77.172V97.153h-35.14V89.93h82.28v7.223h-35.14v84.612h-12Zm77.66 0h-11.95V89.93h11.95v40.133h54.96V89.93h11.95v91.835h-11.95v-45.673h-54.96v45.673ZM548.308 287.401c-.869.978-2.118 2.118-3.747 3.421-1.629 1.304-3.693 2.553-6.137 3.693-2.444 1.141-5.322 2.118-8.635 2.879-3.313.76-7.06 1.195-11.242 1.195-6.625 0-12.328-1.032-17.107-3.096s-8.743-4.779-11.785-8.146a31.818 31.818 0 0 1-6.842-11.622 41.844 41.844 0 0 1-2.227-13.414c0-5.322.923-10.102 2.77-14.392 1.846-4.29 4.453-7.983 7.766-11.024 3.367-3.042 7.386-5.377 12.056-7.061 4.671-1.629 9.884-2.443 15.587-2.443 3.964 0 7.44.38 10.535 1.194 3.096.761 5.757 1.847 8.092 3.259 2.281 1.358 4.236 3.041 5.757 4.942 1.521 1.901 2.824 3.964 3.801 6.191h-7.277c-.434-1.358-1.249-2.715-2.389-4.073-1.141-1.358-2.607-2.553-4.454-3.584-1.792-1.032-3.856-1.901-6.191-2.553-2.335-.652-4.888-.977-7.712-.977-4.127 0-7.929.76-11.459 2.281-3.53 1.52-6.517 3.584-9.123 6.299-2.553 2.716-4.562 5.866-5.974 9.613-1.412 3.693-2.118 7.766-2.118 12.273 0 4.182.652 8.255 2.009 12.111 1.358 3.856 3.313 7.277 5.974 10.21 2.607 2.933 5.92 5.322 9.83 7.06 3.91 1.792 8.472 2.661 13.577 2.661 9.178 0 17.107-3.15 23.787-9.449l2.932 2.661-.054-.109Zm14.016 9.977v-68.862h8.961v63.486h35.518v5.431h-44.479v-.055Zm103.889-68.862v5.43h-35.518v24.711h30.521v4.507h-30.521v28.838h35.518v5.431h-44.479V228.57h44.479v-.054Zm19.281 48.605-8.635 20.257h-4.507l29.109-68.862h4.942l32.096 68.862h-9.558l-9.45-20.257h-33.997Zm16.401-37.581h-.38l-14.174 33.182h30.032L701.95 239.54h-.055Zm111.494-11.017v70.057h-.488l-54.634-53.819h-.381v52.625h-4.507v-70.058h.489l54.634 53.819h.38v-52.624h4.507Zm36.713-.007v68.862h-8.961v-68.862h8.961Zm87.76.007v70.057h-.489l-54.634-53.819h-.38v52.625h-4.507v-70.058h.488l54.634 53.819h.38v-52.624h4.508Zm86.508 68.871h-8.36v-4.019c-2.5 1.303-5.65 2.498-9.45 3.584-3.8 1.086-8.203 1.63-13.09 1.63-6.572 0-12.22-1.032-16.945-3.096-4.724-2.064-8.635-4.833-11.676-8.255a33.386 33.386 0 0 1-6.788-11.73 42.012 42.012 0 0 1-2.227-13.523c0-5.431.923-10.319 2.878-14.609 1.901-4.29 4.562-7.929 7.984-10.862 3.421-2.932 7.44-5.213 12.165-6.788 4.724-1.575 9.829-2.335 15.423-2.335 4.834 0 9.066.543 12.656 1.629 3.58 1.086 6.57 2.389 9.01 3.964 2.45 1.575 4.35 3.259 5.76 5.051 1.41 1.792 2.39 3.421 2.99 4.888h-7.06c-.38-1.358-1.25-2.716-2.61-4.073-1.36-1.358-3.04-2.553-5.16-3.585s-4.51-1.9-7.17-2.552c-2.714-.652-5.592-.978-8.633-.978-4.671 0-8.744.761-12.274 2.281-3.53 1.521-6.462 3.639-8.906 6.409-2.444 2.769-4.236 6.028-5.485 9.829-1.195 3.802-1.847 7.984-1.847 12.491 0 4.508.652 8.798 1.901 12.654 1.303 3.856 3.204 7.169 5.757 9.938 2.552 2.77 5.811 4.997 9.666 6.517 3.856 1.575 8.418 2.336 13.577 2.336 3.964 0 7.444-.435 10.534-1.358 3.1-.923 6.14-2.335 9.07-4.236v-17.813h-11.02v-4.019h19.39v30.684l-.06-.054Z"/>
  <path fill="#283D8F" d="m311.313 115.901 10.047-5.268-4.236 10.536 5.268 10.101-10.536-4.236-10.101 5.268 4.236-10.59-5.268-10.047 10.59 4.236Zm25.367-6.621 11.242-1.575-7.494 8.526 1.575 11.242-8.527-7.495-11.242 1.575 7.495-8.526-1.575-11.242 8.526 7.495Z"/>
  <path fill="#283D8F" d="m313.486 94.393 9.449-6.354-3.095 10.97 6.354 9.45-10.97-3.041-9.45 6.299 3.041-10.916-6.299-9.45 10.97 3.042ZM78.391 245.244l10.102-5.267-4.236 10.59 5.267 10.047-10.59-4.236-10.047 5.267 4.182-10.535-5.213-10.102 10.535 4.236Zm25.358-6.566 11.296-1.575-7.549 8.526 1.629 11.242-8.526-7.495-11.296 1.575 7.549-8.526-1.63-11.296 8.527 7.549Z"/>
  <path fill="#283D8F" d="m80.566 223.745 9.45-6.3-3.042 10.971 6.3 9.449-10.916-3.095-9.45 6.354 3.042-10.971-6.354-9.449 10.97 3.041Z"/>
  <path stroke="#283D8F" stroke-miterlimit="10" stroke-width="10.862" d="M216.004 106.832 9.688 240.484l207.348 146.523 201.211-142.232-202.243-137.943Zm-93.574 66.039 202.243 142.83m-8.413-140.498L114.125 314.232"/>
  <path fill="#283D8F" d="M280.198 315.688H150.836v7.385h129.362v-7.385Zm-105.795-23.231h85.264c7.983 0 14.446 6.463 14.446 14.446v6.734H159.957v-6.734c0-7.983 6.463-14.446 14.446-14.446Zm51.809-104.289h-21.398v99.384h21.398v-99.384Zm0-21.34h-21.398v14.175h21.398v-14.175Zm0-18.074h-21.398v14.174h21.398v-14.174Zm0-18.031h-21.398v14.174h21.398v-14.174Zm0-18.035h-21.398v14.174h21.398v-14.174Zm9.611-44.263c-3.041 5.43-5.322 11.242-6.843 17.324l-21.832-2.335a90.808 90.808 0 0 1 7.984-24.059l20.691 9.07Zm13.097-18.574c-4.508 4.67-8.418 9.884-11.459 15.532l-20.691-9.069c3.91-8.038 9.015-15.532 15.26-22.158l16.89 15.641v.054Zm14.93-12.641c-4.507 2.986-8.689 6.408-12.382 10.21l-16.89-15.642c4.345-4.67 9.232-8.906 14.663-12.708l14.609 18.14Zm10.424-31.46 7.983 21.832a66.316 66.316 0 0 0-7.929 3.313c-2.607 1.303-5.268 2.77-7.766 4.344L251.953 17.1a98.468 98.468 0 0 1 12.111-7.114 95.755 95.755 0 0 1 10.155-4.236h.055Zm-46.098 83.753c-1.629 6.626-2.389 13.577-2.063 20.583h-21.018a89.933 89.933 0 0 1 1.304-22.918l21.832 2.335h-.055ZM297.906.445l3.638 22.755a70.73 70.73 0 0 0-16.129 3.693l-7.983-21.832A94.388 94.388 0 0 1 297.906.445Zm26.447.587-1.52 22.538c-5.866-.814-11.84-.977-17.814-.326L301.381.49c7.712-.814 15.423-.597 23.027.543h-.055Z"/>
</svg>
